PathFileType	4	(X/Y/Z)	s10c0102.trc
DataRate	CameraRate	NumFrames	NumMarkers	Units	OrigDataRate	OrigDataStartFrame	OrigNumFrames
200	200	7	50	mm	200	0	2000
Frame#	Time	racr			lacr			c7			jug			rlel			rdr			llel			ldr			s2			lic			ric			lasi			rasi			rpsi			lpsi			rgt			lgt			rth1			rth2			rth3			rth4			rlfc			rmfc			rsh1			rsh2			rsh3			rsh4			rlmal			rmmal			rcal			rtoe			rmt5			lth1			lth2			lth4			lth3			llfc			lmfc			llmal			lmmal			lcal			lmt5			lsh1			lsh2			lsh3			lsh4			ltoe			SBIKE			LBIKE			RBIKE			
		X1	Y1	Z1	X2	Y2	Z2	X3	Y3	Z3	X4	Y4	Z4	X5	Y5	Z5	X6	Y6	Z6	X7	Y7	Z7	X8	Y8	Z8	X9	Y9	Z9	X10	Y10	Z10	X11	Y11	Z11	X12	Y12	Z12	X13	Y13	Z13	X14	Y14	Z14	X15	Y15	Z15	X16	Y16	Z16	X17	Y17	Z17	X18	Y18	Z18	X19	Y19	Z19	X20	Y20	Z20	X21	Y21	Z21	X22	Y22	Z22	X23	Y23	Z23	X24	Y24	Z24	X25	Y25	Z25	X26	Y26	Z26	X27	Y27	Z27	X28	Y28	Z28	X29	Y29	Z29	X30	Y30	Z30	X31	Y31	Z31	X32	Y32	Z32	X33	Y33	Z33	X34	Y34	Z34	X35	Y35	Z35	X36	Y36	Z36	X37	Y37	Z37	X38	Y38	Z38	X39	Y39	Z39	X40	Y40	Z40	X41	Y41	Z41	X42	Y42	Z42	X43	Y43	Z43	X44	Y44	Z44	X45	Y45	Z45	X46	Y46	Z46	X47	Y47	Z47	X48	Y48	Z48	X49	Y49	Z49	X50	Y50	Z50	
0	0.0000	397.536487	1253.091218	-33.691151	393.897526	1255.188484	-385.344363	389.938280	1316.585645	-208.177266	394.573259	1173.392139	-206.745120	456.664817	1002.588109	28.984206	636.370419	880.875072	-33.503100	444.005774	1001.135520	-480.022440	631.095642	888.406766	-422.094170	-122.939658	1108.048230	-217.108718	45.528003	1115.214797	-364.268988	58.691938	1113.438093	-81.417946	66.430079	1023.516387	-341.868112	45.500450	1029.147367	-81.014241	-77.315712	1162.925736	-159.959428	-68.668259	1167.683618	-270.186388	-63.813012	1017.091547	-23.195888	-58.557001	985.851889	-408.514272	38.863555	921.425009	2.263766	126.476549	906.925359	-3.948465	191.328252	850.866656	-4.917043	140.423815	941.041485	-10.921864	296.506059	800.098597	-20.734241	297.558888	795.309326	-138.288364	253.823079	690.326280	-2.728505	262.695421	603.548877	-21.972070	227.508617	525.596885	-34.803253	293.502112	604.186045	-45.840006	208.203392	428.293708	-59.121163	229.474906	451.482404	-137.476690	156.414250	403.681492	-106.774629	398.702910	396.799574	-105.244285	318.967479	365.944268	-42.732004	16.827848	878.613314	-427.560271	91.322054	834.555386	-419.195085	116.708920	859.576954	-411.073692	134.156087	756.943227	-416.735711	205.236981	672.510509	-402.291081	210.913350	666.401030	-283.027214	-56.536360	403.320692	-379.670573	-43.822482	402.725063	-297.981339	-118.122050	403.275592	-333.378259	1.392066	275.079611	-400.205822	108.980666	595.706409	-424.149643	77.755221	513.399897	-406.771741	7.029612	461.067100	-399.456455	103.523900	500.367421	-382.820578	87.711438	257.801130	-345.667491	-218.019465	833.981343	-214.810419	-104.091566	81.760175	-417.496948	-103.572510	81.251886	-18.034650	
1	0.0050	397.336763	1253.088344	-33.751289	393.906750	1255.240428	-385.362671	389.825822	1316.597046	-208.200857	394.470037	1173.415645	-206.801204	456.631386	1002.592964	28.917019	636.374528	880.858088	-33.566813	443.933462	1001.210661	-480.020238	631.120511	888.401925	-422.158416	-123.026085	1107.949861	-217.258197	45.440035	1115.203703	-364.459157	58.591615	1113.399561	-81.637810	66.371386	1023.457807	-342.058151	45.450396	1029.079421	-81.155003	-77.435051	1162.879795	-160.167641	-68.747363	1167.618588	-270.331405	-63.891274	1017.001768	-23.369775	-58.615261	985.825175	-408.663833	38.750450	921.135787	2.096370	126.339889	906.643083	-4.080865	191.117646	850.463432	-5.081063	140.328302	940.726079	-11.070247	296.274955	799.672263	-20.871671	297.241925	794.784791	-138.385098	253.597590	689.870625	-2.873524	262.417096	603.163532	-22.059397	227.395320	525.193683	-34.882241	293.244385	603.806925	-45.927508	208.101360	427.840589	-59.138562	229.389937	451.101941	-137.389083	156.302195	403.294450	-106.741426	398.644472	396.637276	-105.245941	318.935369	365.671157	-42.725261	16.844494	878.635605	-427.692097	91.394830	834.685474	-419.363002	116.429069	859.094762	-412.070812	134.333580	757.137922	-416.874343	205.556590	672.759076	-402.417054	211.181292	666.631912	-283.090104	-56.404940	403.655407	-379.671012	-43.638065	402.966316	-298.026431	-117.989121	403.655481	-333.415194	1.383370	275.304144	-400.210641	109.261941	595.939539	-424.235492	77.938981	513.621227	-406.805295	7.198569	461.384740	-399.481274	103.758704	500.663095	-382.911454	87.669233	257.929733	-345.666841	-218.028352	833.995744	-214.811296	-104.106788	81.755253	-417.494870	-103.577108	81.256080	-18.042597	
2	0.0100	397.169647	1253.058433	-33.791595	393.922516	1255.253301	-385.344903	389.742223	1316.617241	-208.222543	394.374949	1173.406011	-206.837166	456.606009	1002.556701	28.836680	636.365219	880.872964	-33.611052	444.003153	1001.242301	-480.051630	631.152346	888.410464	-422.218788	-123.074617	1107.882546	-217.392190	45.380674	1115.175762	-364.649587	58.515006	1113.366072	-81.806858	66.342441	1023.440576	-342.220084	45.397885	1028.985803	-81.385233	-77.525874	1162.824920	-160.344122	-68.804864	1167.555174	-270.467139	-63.970825	1016.883449	-23.516555	-58.682060	985.785248	-408.803139	38.675825	920.901443	1.892042	126.230694	906.400905	-4.214116	190.925145	850.090666	-5.263834	140.243725	940.416646	-11.240290	296.066248	799.300467	-20.978523	296.873540	794.300473	-138.464411	253.329575	689.442566	-2.996580	262.168356	602.791904	-22.132447	227.300483	524.743750	-34.934954	293.034568	603.319824	-46.018156	207.998845	427.420082	-59.169460	229.267935	450.733850	-137.463290	156.215398	402.669704	-106.796612	398.574213	396.477959	-105.240928	318.916037	365.417767	-42.745586	16.880404	878.666419	-427.811676	91.474142	834.781450	-419.470704	116.825858	859.857801	-411.357788	134.479917	757.285992	-417.010861	205.854734	672.931724	-402.520837	211.493719	666.863745	-283.199992	-56.287006	403.969655	-379.716821	-43.521762	403.226710	-298.069281	-117.866491	404.031502	-333.439806	1.368502	275.535671	-400.204129	109.538384	596.165996	-424.346829	78.149245	513.861633	-406.886945	7.361088	461.679052	-399.539594	103.969247	500.886520	-382.987625	87.622027	258.052200	-345.686564	-218.046453	834.007604	-214.824596	-104.094652	81.746978	-417.508734	-103.584787	81.261486	-18.043690	
3	0.0150	397.008005	1253.035692	-33.841899	394.071895	1255.068447	-384.734844	389.768972	1316.802246	-208.356598	394.270057	1173.429475	-206.906555	456.580348	1002.543379	28.773110	636.380521	880.855466	-33.643735	444.205817	1001.544232	-480.035321	631.191888	888.395699	-422.217095	-123.126425	1107.787624	-217.532301	45.304158	1115.175434	-364.832022	58.537230	1113.383837	-81.980983	66.299836	1023.414135	-342.399253	45.361234	1028.943345	-81.533614	-77.570399	1162.689048	-160.657879	-68.767649	1167.985860	-270.187644	-64.003373	1016.693663	-23.680881	-58.732128	985.759161	-408.928010	38.610209	920.666077	1.731836	126.367077	905.998667	-4.335926	192.365164	851.303448	-5.493164	140.157263	940.134419	-11.376770	295.809200	798.837572	-21.135593	296.528450	793.774018	-138.609094	253.060161	689.066389	-3.099193	262.079678	602.498751	-22.599914	227.244667	524.227630	-34.995594	292.874636	603.003269	-46.104547	207.824971	427.135671	-59.126532	229.139223	450.162690	-137.606803	156.260132	402.095421	-106.875452	398.509200	396.328528	-105.236657	318.928897	365.141809	-42.741426	16.906027	878.700218	-427.952405	91.545175	834.880602	-419.597171	116.850444	860.163934	-411.694955	135.145577	757.848393	-417.256588	206.114662	673.093198	-402.665020	211.829947	667.064392	-283.347774	-56.207717	404.244197	-379.744272	-43.464729	403.573893	-298.103456	-117.750812	404.387588	-333.467019	1.335248	275.758072	-400.217590	110.425147	596.140803	-424.205914	78.355936	514.089634	-406.914769	7.388921	462.138013	-399.459512	103.045790	500.331637	-381.502972	87.584530	258.128993	-345.663659	-217.966878	834.059079	-214.486653	-104.100477	81.751393	-417.511754	-103.557510	81.239418	-18.037549	
4	0.0200	396.876540	1252.965497	-33.921054	394.071745	1255.043497	-384.789179	389.669480	1316.633125	-208.412582	394.170873	1173.282522	-206.627772	456.754564	1002.723548	28.945972	636.115665	879.909972	-33.507180	443.786686	1000.562664	-479.743682	631.255600	888.286616	-421.871059	-123.781699	1106.977638	-217.275809	45.611242	1114.448745	-365.494915	58.515997	1113.340672	-82.121179	66.529905	1022.646187	-342.964540	45.264834	1028.823288	-81.864693	-77.802961	1162.743879	-160.573178	-68.873552	1167.908458	-270.151875	-63.875609	1016.754432	-23.532404	-58.776878	985.336022	-409.311388	38.636549	920.595390	1.612624	126.434904	905.885810	-4.356484	192.305389	850.950697	-5.618996	140.223801	940.052969	-11.288687	295.607587	798.461619	-21.244924	296.242916	793.313591	-138.407249	253.036015	688.761032	-3.118094	262.101134	601.943879	-22.541837	227.307402	523.873730	-34.864877	292.736611	602.721169	-45.927972	207.693688	426.095686	-59.371790	229.000580	449.936612	-137.539923	155.961904	402.046974	-106.248032	398.466928	396.133644	-105.323784	319.013381	364.983335	-42.613898	16.889921	878.146463	-428.161229	91.349564	834.156433	-419.359337	116.552211	859.319372	-411.428389	135.264166	757.177248	-417.724336	206.076683	672.290904	-402.349540	212.191096	667.454052	-283.324713	-56.525060	403.860185	-379.698578	-43.718042	403.187148	-298.170212	-117.899436	404.114854	-333.505286	1.002452	275.134178	-400.263634	110.863441	595.510320	-424.669748	78.576994	514.142858	-406.855786	7.467599	461.561700	-399.601725	103.264667	500.395287	-381.350360	87.218125	257.157235	-345.231393	-218.185551	833.259973	-214.302834	-104.245206	80.482411	-418.501710	-103.988131	80.514978	-18.297511	
5	0.0250	396.719769	1252.871600	-33.928993	394.045704	1255.069432	-384.810109	389.588099	1316.652292	-208.450972	394.123411	1173.279653	-206.647423	456.739063	1002.710820	28.916046	636.115396	879.870254	-33.521449	443.788778	1000.499827	-479.734288	631.285073	888.286574	-421.787131	-123.889639	1106.845735	-217.335810	45.642134	1114.343252	-365.697137	58.447607	1113.287266	-82.257394	66.546151	1022.514077	-343.149333	45.233961	1028.797005	-81.993719	-77.810841	1162.648451	-160.719033	-68.858984	1167.799698	-270.344924	-63.895104	1016.628583	-23.666868	-58.833937	985.309432	-409.460504	38.550386	920.401292	1.454839	126.349672	905.614144	-4.453408	192.180293	850.618398	-5.801845	140.172081	939.789248	-11.382101	295.399001	798.067513	-21.381718	296.016762	792.883207	-138.473771	252.834229	688.351581	-3.185159	261.969648	601.612224	-22.597015	227.244552	523.530206	-34.929079	292.621433	602.316770	-45.941263	207.625818	425.694903	-59.448408	228.931987	449.558113	-137.565702	155.877278	401.663041	-106.303724	398.431282	395.997664	-105.292803	319.002777	364.795143	-42.610722	16.899646	878.079093	-428.273731	91.391100	834.123510	-419.445306	116.544930	859.321810	-411.526646	135.356663	757.194184	-417.890138	206.231956	672.299216	-402.404531	212.600442	667.791195	-283.232097	-56.441596	404.093275	-379.738538	-43.680415	403.424989	-298.242390	-117.833373	404.381129	-333.521751	0.919871	275.203070	-400.210672	111.119012	595.580269	-424.824385	78.797135	514.486016	-407.005565	7.562637	461.695347	-399.647004	103.460103	500.619057	-381.491404	87.126736	257.189417	-345.138335	-218.245348	833.193304	-214.289259	-104.130600	80.605794	-418.645046	-104.016459	80.464506	-18.330100	
6	0.0300	396.558837	1252.806106	-33.949577	394.033427	1255.086992	-384.854908	389.504692	1316.659099	-208.498967	394.056720	1173.303464	-206.684112	456.710463	1002.693534	28.872924	636.153288	879.841337	-33.497702	443.838369	1000.490032	-479.704791	631.327593	888.296084	-421.712867	-123.938750	1106.754577	-217.404614	45.632170	1114.306344	-365.866346	58.350950	1113.232761	-82.394009	66.548499	1022.462832	-343.297176	45.201341	1028.759224	-82.129719	-77.830161	1162.534380	-160.893008	-68.874123	1167.726214	-270.499730	-63.909048	1016.486913	-23.805237	-58.876444	985.270668	-409.579378	38.474130	920.184204	1.303574	126.288296	905.360712	-4.554887	192.089875	850.377136	-5.954135	140.122809	939.584722	-11.459187	295.211448	797.725662	-21.476726	295.762887	792.464651	-138.563645	252.589084	688.097416	-3.287277	261.844384	601.270225	-22.622426	227.095291	523.200759	-35.019924	292.507100	602.009172	-45.974022	207.564266	425.324494	-59.492793	228.932307	449.337527	-137.557531	155.821565	401.240681	-106.302743	398.412764	395.906388	-105.311342	318.989981	364.606527	-42.596897	16.917654	878.064866	-428.372811	91.445148	834.165976	-419.585843	116.574129	859.407958	-411.673811	135.467474	757.239374	-417.999058	206.419781	672.387753	-402.529123	212.953406	667.957934	-283.390826	-56.329978	404.310040	-379.777968	-43.555295	403.618775	-298.291288	-117.732125	404.665528	-333.519880	0.895673	275.387777	-400.186626	111.360504	595.708877	-424.977947	78.968698	514.659177	-407.101757	7.689555	461.972030	-399.682605	103.629646	500.834518	-381.615887	87.044378	257.243087	-345.112490	-218.264069	833.156223	-214.280307	-104.107298	80.617812	-418.649506	-104.032539	80.499048	-18.353157	
